<?xml version="1.0" encoding="UTF-8" standalone="no"?>
<svg
   xmlns:dc="http://purl.org/dc/elements/1.1/"
   xmlns:cc="http://creativecommons.org/ns#"
   xmlns:rdf="http://www.w3.org/1999/02/22-rdf-syntax-ns#"
   xmlns:svg="http://www.w3.org/2000/svg"
   xmlns="http://www.w3.org/2000/svg"
   xmlns:sodipodi="http://sodipodi.sourceforge.net/DTD/sodipodi-0.dtd"
   xmlns:inkscape="http://www.inkscape.org/namespaces/inkscape"
   version="1.1"
   id="Layer_1"
   x="0px"
   y="0px"
   viewBox="0 0 32 32"
   style="enable-background:new 0 0 32 32;"
   xml:space="preserve"
   sodipodi:docname="transport-icon-4.svg"
   inkscape:version="0.92.4 5da689c313, 2019-01-14"><metadata
     id="metadata3834"><rdf:RDF><cc:Work
         rdf:about=""><dc:format>image/svg+xml</dc:format><dc:type
           rdf:resource="http://purl.org/dc/dcmitype/StillImage" /></cc:Work></rdf:RDF></metadata><defs
     id="defs3832" /><sodipodi:namedview
     pagecolor="#ffffff"
     bordercolor="#666666"
     borderopacity="1"
     objecttolerance="10"
     gridtolerance="10"
     guidetolerance="10"
     inkscape:pageopacity="0"
     inkscape:pageshadow="2"
     inkscape:window-width="1900"
     inkscape:window-height="1002"
     id="namedview3830"
     showgrid="false"
     inkscape:zoom="14.75"
     inkscape:cx="26.255624"
     inkscape:cy="18.805838"
     inkscape:window-x="8"
     inkscape:window-y="180"
     inkscape:window-maximized="0"
     inkscape:current-layer="Layer_1" /><rect
     style="fill:#ffffff;stroke-width:0.9118709"
     id="rect3985"
     width="12.677967"
     height="25.220339"
     x="10.372881"
     y="3.4576271" /><path
     inkscape:connector-curvature="0"
     style="fill:#503694"
     d="m 14.2,21.2 c -0.7,0 -1.2,0.6 -1.2,1.2 0,0.7 0.5,1.2 1.2,1.2 0.7,0 1.2,-0.6 1.2,-1.2 0,-0.6 -0.5,-1.2 -1.2,-1.2 z"
     id="path3819" /><path
     inkscape:connector-curvature="0"
     style="fill:#503694"
     d="m 18.2,7.0999998 0.6,-2.3 c -0.5,-0.1 -1.1,-0.1 -1.6,-0.1 h -0.4 c -0.5,0 -1.1,0.1 -1.6,0.1 l 0.6,2.3 z"
     id="path3821" /><path
     inkscape:connector-curvature="0"
     style="fill:#503694"
     d="m 19.8,21.2 c -0.7,0 -1.2,0.6 -1.2,1.2 0,0.7 0.6,1.2 1.2,1.2 0.7,0 1.2,-0.6 1.2,-1.2 0,-0.6 -0.6,-1.2 -1.2,-1.2 z"
     id="path3823" /><path
     inkscape:connector-curvature="0"
     style="fill:#503694"
     d="m 14.8,8.5999998 c -1,0 -1.8,0.8 -1.8,1.8000002 v 7.4 c 0,1 0.8,1.8 1.8,1.8 h 4.3 c 1,0 1.8,-0.8 1.8,-1.8 V 10.4 C 20.9,9.3999998 20.1,8.5999998 19.1,8.5999998 Z M 19.1,11.1 h -4.3 c -0.8,0 -0.8,-1.2 0,-1.2 h 4.3 c 0.9,0 0.9,1.2 0,1.2 z"
     id="path3825" /><path
     inkscape:connector-curvature="0"
     style="fill:#503694"
     d="m 16,-1.9e-7 c -0.1,0 -16,0 -16,0 V 16 c 0,8.8 7.1,15.9 15.9,16 0,0 16.1,0 16.1,0 0,0 0,-16 0,-16 C 32,7.1999998 24.8,-1.9e-7 16,-1.9e-7 Z m 3.4,7.09999999 c 1.7,0 3.1,1.4 3.1,3.1000002 v 12.3 c 0,1.3 -0.8,2.5 -2,2.9 l 2,3 h -2.2 l -1.1,-1.6 h -4.5 l -1.1,1.6 h -2.2 l 2,-3 c -1.2,-0.4 -2,-1.6 -2,-2.9 V 10.1 c 0,-1.7000002 1.4,-3.1000002 3.1,-3.1000002 h 0.3 l -0.6,-2 c -0.9,0.2 -1.7,0.4 -2.2,0.6 -0.2,0.1 -0.5,0 -0.6,-0.3 -0.1,-0.2 0,-0.5 0.3,-0.6 0.9,-0.4 3.1,-0.9 5,-1 h 0.4 c 1.9,0 4.1,0.6 5,1 0.2,0.1 0.3,0.4 0.3,0.6 -0.1,0.2 -0.2,0.3 -0.4,0.3 -0.1,0 -0.1,0 -0.2,0 -0.5,-0.2 -1.3,-0.4 -2.2,-0.6 l -0.6,2.1 z"
     id="path3827" /></svg>